{
    "asset" : {
        "generator" : "Khronos glTF Blender I/O v1.7.33",
        "version" : "2.0"
    },
    "scene" : 0,
    "scenes" : [
        {
            "name" : "Scene",
            "nodes" : [
                0
            ]
        }
    ],
    "nodes" : [
        {
            "mesh" : 0,
            "name" : "10917_Asian style soup set_v2_LOD3",
            "scale" : [
                100,
                100,
                100
            ]
        }
    ],
    "materials" : [
        {
            "doubleSided" : true,
            "name" : "_10917_Asian_style_soup_set_v2Material",
            "pbrMetallicRoughness" : {
                "baseColorFactor" : [
                    0.800000011920929,
                    0.800000011920929,
                    0.800000011920929,
                    1
                ],
                "metallicFactor" : 0,
                "roughnessFactor" : 0.870900571346283
            }
        },
        {
            "doubleSided" : true,
            "name" : "_10917_Asian_style_soup_set_v2Material_untitled_001",
            "pbrMetallicRoughness" : {
                "baseColorFactor" : [
                    0.800000011920929,
                    0.800000011920929,
                    0.800000011920929,
                    1
                ],
                "metallicFactor" : 0,
                "roughnessFactor" : 0.870900571346283
            }
        },
        {
            "doubleSided" : true,
            "name" : "_10917_Asian_style_soup_set_v2Material_001",
            "pbrMetallicRoughness" : {
                "baseColorFactor" : [
                    0.7355999946594238,
                    0,
                    0,
                    1
                ],
                "metallicFactor" : 0,
                "roughnessFactor" : 0.870900571346283
            }
        },
        {
            "doubleSided" : true,
            "name" : "_10917_Asian_style_soup_set_v2Material_001_untitled_001",
            "pbrMetallicRoughness" : {
                "baseColorFactor" : [
                    0.7355999946594238,
                    0,
                    0,
                    1
                ],
                "metallicFactor" : 0,
                "roughnessFactor" : 0.870900571346283
            }
        },
        {
            "doubleSided" : true,
            "name" : "_10917_Asian_style_soup_set_v2Material_003_untitled_001",
            "pbrMetallicRoughness" : {
                "baseColorFactor" : [
                    0.800000011920929,
                    0.800000011920929,
                    0.800000011920929,
                    1
                ],
                "metallicFactor" : 0,
                "roughnessFactor" : 0.870900571346283
            }
        }
    ],
    "meshes" : [
        {
            "name" : "10917_Asian style soup set_v2_LOD3",
            "primitives" : [
                {
                    "attributes" : {
                        "POSITION" : 0,
                        "NORMAL" : 1,
                        "TEXCOORD_0" : 2
                    },
                    "indices" : 3,
                    "material" : 0
                },
                {
                    "attributes" : {
                        "POSITION" : 4,
                        "NORMAL" : 5,
                        "TEXCOORD_0" : 6
                    },
                    "indices" : 7,
                    "material" : 1
                },
                {
                    "attributes" : {
                        "POSITION" : 8,
                        "NORMAL" : 9,
                        "TEXCOORD_0" : 10
                    },
                    "indices" : 11,
                    "material" : 2
                },
                {
                    "attributes" : {
                        "POSITION" : 12,
                        "NORMAL" : 13,
                        "TEXCOORD_0" : 14
                    },
                    "indices" : 15,
                    "material" : 3
                },
                {
                    "attributes" : {
                        "POSITION" : 16,
                        "NORMAL" : 17,
                        "TEXCOORD_0" : 18
                    },
                    "indices" : 19,
                    "material" : 4
                }
            ]
        }
    ],
    "accessors" : [
        {
            "bufferView" : 0,
            "componentType" : 5126,
            "count" : 510,
            "max" : [
                -0.002400000113993883,
                0.040699999779462814,
                0.02590000070631504
            ],
            "min" : [
                -0.02199999988079071,
                0.005900000222027302,
                -0.023800000548362732
            ],
            "type" : "VEC3"
        },
        {
            "bufferView" : 1,
            "componentType" : 5126,
            "count" : 510,
            "type" : "VEC3"
        },
        {
            "bufferView" : 2,
            "componentType" : 5126,
            "count" : 510,
            "type" : "VEC2"
        },
        {
            "bufferView" : 3,
            "componentType" : 5123,
            "count" : 2796,
            "type" : "SCALAR"
        },
        {
            "bufferView" : 4,
            "componentType" : 5126,
            "count" : 1226,
            "max" : [
                0.009499999694526196,
                0.026200000196695328,
                0.03840000182390213
            ],
            "min" : [
                -0.039900001138448715,
                0.0003000000142492354,
                -0.010900000110268593
            ],
            "type" : "VEC3"
        },
        {
            "bufferView" : 5,
            "componentType" : 5126,
            "count" : 1226,
            "type" : "VEC3"
        },
        {
            "bufferView" : 6,
            "componentType" : 5126,
            "count" : 1226,
            "type" : "VEC2"
        },
        {
            "bufferView" : 7,
            "componentType" : 5123,
            "count" : 6912,
            "type" : "SCALAR"
        },
        {
            "bufferView" : 8,
            "componentType" : 5126,
            "count" : 168,
            "max" : [
                -0.0026000000070780516,
                0.04100000113248825,
                0.02590000070631504
            ],
            "min" : [
                -0.02199999988079071,
                0.007600000128149986,
                -0.023000000044703484
            ],
            "type" : "VEC3"
        },
        {
            "bufferView" : 9,
            "componentType" : 5126,
            "count" : 168,
            "type" : "VEC3"
        },
        {
            "bufferView" : 10,
            "componentType" : 5126,
            "count" : 168,
            "type" : "VEC2"
        },
        {
            "bufferView" : 11,
            "componentType" : 5123,
            "count" : 756,
            "type" : "SCALAR"
        },
        {
            "bufferView" : 12,
            "componentType" : 5126,
            "count" : 648,
            "max" : [
                0.011099999770522118,
                0.0272000003606081,
                0.04010000079870224
            ],
            "min" : [
                -0.04149999842047691,
                0.002899999963119626,
                -0.012600000016391277
            ],
            "type" : "VEC3"
        },
        {
            "bufferView" : 13,
            "componentType" : 5126,
            "count" : 648,
            "type" : "VEC3"
        },
        {
            "bufferView" : 14,
            "componentType" : 5126,
            "count" : 648,
            "type" : "VEC2"
        },
        {
            "bufferView" : 15,
            "componentType" : 5123,
            "count" : 3024,
            "type" : "SCALAR"
        },
        {
            "bufferView" : 16,
            "componentType" : 5126,
            "count" : 720,
            "max" : [
                0.010999999940395355,
                0.025800000876188278,
                0.03999999910593033
            ],
            "min" : [
                -0.0414000004529953,
                0.0035000001080334187,
                -0.012500000186264515
            ],
            "type" : "VEC3"
        },
        {
            "bufferView" : 17,
            "componentType" : 5126,
            "count" : 720,
            "type" : "VEC3"
        },
        {
            "bufferView" : 18,
            "componentType" : 5126,
            "count" : 720,
            "type" : "VEC2"
        },
        {
            "bufferView" : 19,
            "componentType" : 5123,
            "count" : 3888,
            "type" : "SCALAR"
        }
    ],
    "bufferViews" : [
        {
            "buffer" : 0,
            "byteLength" : 6120,
            "byteOffset" : 0
        },
        {
            "buffer" : 0,
            "byteLength" : 6120,
            "byteOffset" : 6120
        },
        {
            "buffer" : 0,
            "byteLength" : 4080,
            "byteOffset" : 12240
        },
        {
            "buffer" : 0,
            "byteLength" : 5592,
            "byteOffset" : 16320
        },
        {
            "buffer" : 0,
            "byteLength" : 14712,
            "byteOffset" : 21912
        },
        {
            "buffer" : 0,
            "byteLength" : 14712,
            "byteOffset" : 36624
        },
        {
            "buffer" : 0,
            "byteLength" : 9808,
            "byteOffset" : 51336
        },
        {
            "buffer" : 0,
            "byteLength" : 13824,
            "byteOffset" : 61144
        },
        {
            "buffer" : 0,
            "byteLength" : 2016,
            "byteOffset" : 74968
        },
        {
            "buffer" : 0,
            "byteLength" : 2016,
            "byteOffset" : 76984
        },
        {
            "buffer" : 0,
            "byteLength" : 1344,
            "byteOffset" : 79000
        },
        {
            "buffer" : 0,
            "byteLength" : 1512,
            "byteOffset" : 80344
        },
        {
            "buffer" : 0,
            "byteLength" : 7776,
            "byteOffset" : 81856
        },
        {
            "buffer" : 0,
            "byteLength" : 7776,
            "byteOffset" : 89632
        },
        {
            "buffer" : 0,
            "byteLength" : 5184,
            "byteOffset" : 97408
        },
        {
            "buffer" : 0,
            "byteLength" : 6048,
            "byteOffset" : 102592
        },
        {
            "buffer" : 0,
            "byteLength" : 8640,
            "byteOffset" : 108640
        },
        {
            "buffer" : 0,
            "byteLength" : 8640,
            "byteOffset" : 117280
        },
        {
            "buffer" : 0,
            "byteLength" : 5760,
            "byteOffset" : 125920
        },
        {
            "buffer" : 0,
            "byteLength" : 7776,
            "byteOffset" : 131680
        }
    ],
    "buffers" : [
        {
            "byteLength" : 139456,
            "uri" : "data:application/octet-stream;base64,"
        }
    ]
}
